<?xml version="1.0" encoding="UTF-8" standalone="no"?><svg width="325" height="155" viewBox="0 0 325 155" fill="none" xmlns="http://www.w3.org/2000/svg">
<g clip-path="url(#clip0_2_64)">
<rect width="325" height="155" fill="white"/>
<path d="M18.0722 78.4149L25.6044 87.3914L54.0782 63.499L70.6814 83.2859L48.4815 101.914L56.0136 110.89L78.2136 92.2624L102.835 121.605L113.838 112.372L57.5495 45.2895L18.0722 78.4149Z" fill="#FFCE01"/>
<path d="M122.012 91.199L105.359 71.3523L82.0098 90.9444L74.4178 81.8967L97.7669 62.3045L80.3788 41.5823L54.1111 63.6234L46.5192 54.5757L83.8776 23.2282L140.695 90.9404L103.336 122.288L95.7445 113.24L122.012 91.199Z" fill="#FFCE01"/>
<path d="M162.719 46.25V69H158.031V46.25H162.719ZM171.781 55.9688V59.625H161.438V55.9688H171.781ZM172.875 46.25V49.9219H161.438V46.25H172.875ZM180.578 46.25V69H175.906V46.25H180.578ZM203.484 46.25V69H198.797L189.656 53.75V69H184.969V46.25H189.656L198.812 61.5156V46.25H203.484ZM214.547 69H209.594L209.625 65.3438H214.547C215.776 65.3438 216.812 65.0677 217.656 64.5156C218.5 63.9531 219.135 63.1354 219.562 62.0625C220 60.9896 220.219 59.6927 220.219 58.1719V57.0625C220.219 55.8958 220.094 54.8698 219.844 53.9844C219.604 53.099 219.245 52.3542 218.766 51.75C218.286 51.1458 217.698 50.6927 217 50.3906C216.302 50.0781 215.5 49.9219 214.594 49.9219H209.5V46.25H214.594C216.115 46.25 217.505 46.5104 218.766 47.0312C220.036 47.5417 221.135 48.276 222.062 49.2344C222.99 50.1927 223.703 51.3385 224.203 52.6719C224.714 53.9948 224.969 55.4688 224.969 57.0938V58.1719C224.969 59.7865 224.714 61.2604 224.203 62.5938C223.703 63.9271 222.99 65.0729 222.062 66.0312C221.146 66.9792 220.047 67.7135 218.766 68.2344C217.495 68.7448 216.089 69 214.547 69ZM212.25 46.25V69H207.562V46.25H212.25ZM245.672 46.25V69H241V46.25H245.672ZM252.672 46.25V49.9219H234.109V46.25H252.672ZM270.516 55.5156V59.1719H258.641V55.5156H270.516ZM260.031 46.25V69H255.344V46.25H260.031ZM273.859 46.25V69H269.188V46.25H273.859ZM293.203 65.3438V69H281.094V65.3438H293.203ZM282.625 46.25V69H277.938V46.25H282.625ZM291.625 55.5156V59.0781H281.094V55.5156H291.625ZM293.188 46.25V49.9219H281.094V46.25H293.188ZM173.297 103.344V107H161.188V103.344H173.297ZM162.719 84.25V107H158.031V84.25H162.719ZM171.719 93.5156V97.0781H161.188V93.5156H171.719ZM173.281 84.25V87.9219H161.188V84.25H173.281ZM179.891 84.25L184.172 92.1875L188.453 84.25H193.812L187.203 95.5312L193.984 107H188.578L184.172 98.9062L179.766 107H174.328L181.125 95.5312L174.5 84.25H179.891ZM205.203 98.8906H199.406V95.2344H205.203C206.099 95.2344 206.828 95.0885 207.391 94.7969C207.953 94.4948 208.365 94.0781 208.625 93.5469C208.885 93.0156 209.016 92.4167 209.016 91.75C209.016 91.0729 208.885 90.4427 208.625 89.8594C208.365 89.276 207.953 88.8073 207.391 88.4531C206.828 88.099 206.099 87.9219 205.203 87.9219H201.031V107H196.344V84.25H205.203C206.984 84.25 208.51 84.5729 209.781 85.2188C211.062 85.8542 212.042 86.7344 212.719 87.8594C213.396 88.9844 213.734 90.2708 213.734 91.7188C213.734 93.1875 213.396 94.4583 212.719 95.5312C212.042 96.6042 211.062 97.4323 209.781 98.0156C208.51 98.599 206.984 98.8906 205.203 98.8906ZM232.234 103.344V107H220.125V103.344H232.234ZM221.656 84.25V107H216.969V84.25H221.656ZM230.656 93.5156V97.0781H220.125V93.5156H230.656ZM232.219 84.25V87.9219H220.125V84.25H232.219ZM234.969 84.25H243.453C245.193 84.25 246.688 84.5104 247.938 85.0312C249.198 85.5521 250.167 86.3229 250.844 87.3438C251.521 88.3646 251.859 89.6198 251.859 91.1094C251.859 92.3281 251.651 93.375 251.234 94.25C250.828 95.1146 250.25 95.8385 249.5 96.4219C248.76 96.9948 247.891 97.4531 246.891 97.7969L245.406 98.5781H238.031L238 94.9219H243.484C244.307 94.9219 244.99 94.776 245.531 94.4844C246.073 94.1927 246.479 93.7865 246.75 93.2656C247.031 92.7448 247.172 92.1406 247.172 91.4531C247.172 90.724 247.036 90.0938 246.766 89.5625C246.495 89.0312 246.083 88.625 245.531 88.3438C244.979 88.0625 244.286 87.9219 243.453 87.9219H239.656V107H234.969V84.25ZM247.688 107L242.5 96.8594L247.453 96.8281L252.703 106.781V107H247.688ZM264.703 84.25V107H260.031V84.25H264.703ZM271.703 84.25V87.9219H253.141V84.25H271.703Z" fill="#77716F"/>
</g>
<defs>
<clipPath id="clip0_2_64">
<rect width="325" height="155" fill="white"/>
</clipPath>
</defs>
</svg>
